# xmcd
#
# Track frame offsets:
#	150
#	14550
#	32840
#	46700
#	71640
#	84622
#	101285
#	119577
#	131735
#	148522
#	167182
#	187980
#
# Disc length: 2748 seconds
#
# Revision: 1
# Processed by: cddbd v1.5.2PL0 Copyright (c) Steve Scherf et al.
# Submitted via: audiograbber 1.83.01
#
DISCID=a40aba0c
DTITLE=Davenport - Slow Town
DYEAR=2006
DGENRE=Pop-Rock
TTITLE0=My Heart
TTITLE1=Slow Town
TTITLE2=Red Summer
TTITLE3=I'd Rather Be You Man
TTITLE4=Country Love Song
TTITLE5=What Happens If You Don't Care?
TTITLE6=What's The Answer?
TTITLE7=Let Go
TTITLE8=See You
TTITLE9=Don't Worry
TTITLE10='Cause It's Over Now
TTITLE11=Have You Ever?
EXTD=øåØåSolidt håndværk fra danske roots-debutanter \n\nEn håndfuld danske ban
EXTD=ds har gennem de seneste år forsøgt sig i genren americana. Men kun få har
EXTD=haft held til at tilføre de amerikanske rødder noget nyt eller for den sa
EXTD=gs skyld personligt. Debutanterne Davenport ender med samme facit, hvor ve
EXTD=jen ud mod de åbne vidder er noget tyndslidt. Davenport med rødder i Slage
EXTD=lse har været en tur i Stockholm for at lade sig producere af den svenske 
EXTD=singer-songwriter Nicolai Dunger, der har sat sit tydelige præg på Slow To
EXTD=wn. Ofte trækker både instrumentering, opbygning af numre og ikke mindst s
EXTD=anger Brian Mathiesens støvede fraseringer hen mod producerens egne soloud
EXTD=givelser. Det forhindrer dog ikke My Heart og titelnummeret i at fremstå d
EXTD=ynamiske og swingende med nogle fornemme blæserarrangementer. På What Happ
EXTD=ens If You Don't Care? og What's The Answer viser Davenport en mere mørk s
EXTD=ide af sig selv, der både er klædelig og skaber den fornødne mystik. Daven
EXTD=port formår på Slow Town at rejse sig fra mulden, fordi håndværket er genn
EXTD=emarbejdet og yderst solidt, men næste gang skal der nok spejdes lidt mere
EXTD=efter personligheden ude i horisonten. \nAf Finn P. Madsen
EXTT0=
EXTT1=
EXTT2=
EXTT3=
EXTT4=
EXTT5=
EXTT6=
EXTT7=
EXTT8=
EXTT9=
EXTT10=
EXTT11=
PLAYORDER=
